<mxfile host="app.diagrams.net" agent="Mozilla/5.0 (X11; Linux x86_64) AppleWebKit/537.36 (KHTML, like Gecko) Chrome/120.0.0.0 Safari/537.36" version="26.0.6">
  <diagram name="Page-1" id="IOSsh_ccWK9g5e5Z_m-8">
    <mxGraphModel dx="1364" dy="793" grid="1" gridSize="10" guides="1" tooltips="1" connect="1" arrows="1" fold="1" page="1" pageScale="1" pageWidth="850" pageHeight="1100" math="0" shadow="0">
      <root>
        <mxCell id="0" />
        <mxCell id="1" parent="0" />
        <mxCell id="fby7DOlvjKRymo-5vLgL-8" style="edgeStyle=orthogonalEdgeStyle;rounded=0;orthogonalLoop=1;jettySize=auto;html=1;exitX=1;exitY=0.5;exitDx=0;exitDy=0;entryX=0;entryY=0.5;entryDx=0;entryDy=0;curved=1;" edge="1" parent="1" source="fby7DOlvjKRymo-5vLgL-2" target="fby7DOlvjKRymo-5vLgL-4">
          <mxGeometry relative="1" as="geometry" />
        </mxCell>
        <mxCell id="fby7DOlvjKRymo-5vLgL-9" style="edgeStyle=orthogonalEdgeStyle;rounded=0;orthogonalLoop=1;jettySize=auto;html=1;exitX=1;exitY=0.5;exitDx=0;exitDy=0;entryX=0;entryY=0.5;entryDx=0;entryDy=0;curved=1;" edge="1" parent="1" source="fby7DOlvjKRymo-5vLgL-2" target="fby7DOlvjKRymo-5vLgL-3">
          <mxGeometry relative="1" as="geometry" />
        </mxCell>
        <mxCell id="fby7DOlvjKRymo-5vLgL-10" style="edgeStyle=orthogonalEdgeStyle;rounded=0;orthogonalLoop=1;jettySize=auto;html=1;exitX=1;exitY=0.5;exitDx=0;exitDy=0;entryX=0;entryY=0.5;entryDx=0;entryDy=0;" edge="1" parent="1" source="fby7DOlvjKRymo-5vLgL-2" target="fby7DOlvjKRymo-5vLgL-5">
          <mxGeometry relative="1" as="geometry" />
        </mxCell>
        <mxCell id="fby7DOlvjKRymo-5vLgL-11" style="edgeStyle=orthogonalEdgeStyle;rounded=0;orthogonalLoop=1;jettySize=auto;html=1;exitX=1;exitY=0.5;exitDx=0;exitDy=0;entryX=0;entryY=0.5;entryDx=0;entryDy=0;" edge="1" parent="1" source="fby7DOlvjKRymo-5vLgL-2" target="fby7DOlvjKRymo-5vLgL-6">
          <mxGeometry relative="1" as="geometry" />
        </mxCell>
        <mxCell id="fby7DOlvjKRymo-5vLgL-2" value="Meta-classifier&lt;br&gt;(bitmask)" style="rounded=1;whiteSpace=wrap;html=1;" vertex="1" parent="1">
          <mxGeometry x="120" y="420" width="120" height="60" as="geometry" />
        </mxCell>
        <mxCell id="fby7DOlvjKRymo-5vLgL-3" value="LSTM" style="rounded=1;whiteSpace=wrap;html=1;" vertex="1" parent="1">
          <mxGeometry x="305" y="380" width="120" height="60" as="geometry" />
        </mxCell>
        <mxCell id="fby7DOlvjKRymo-5vLgL-4" value="CNN" style="rounded=1;whiteSpace=wrap;html=1;" vertex="1" parent="1">
          <mxGeometry x="305" y="300" width="120" height="60" as="geometry" />
        </mxCell>
        <mxCell id="fby7DOlvjKRymo-5vLgL-5" value="GRU" style="rounded=1;whiteSpace=wrap;html=1;" vertex="1" parent="1">
          <mxGeometry x="305" y="460" width="120" height="60" as="geometry" />
        </mxCell>
        <mxCell id="fby7DOlvjKRymo-5vLgL-6" value="TLS" style="rounded=1;whiteSpace=wrap;html=1;" vertex="1" parent="1">
          <mxGeometry x="305" y="540" width="120" height="60" as="geometry" />
        </mxCell>
        <mxCell id="fby7DOlvjKRymo-5vLgL-7" value="Agregator" style="rounded=1;whiteSpace=wrap;html=1;" vertex="1" parent="1">
          <mxGeometry x="470" y="420" width="120" height="60" as="geometry" />
        </mxCell>
      </root>
    </mxGraphModel>
  </diagram>
</mxfile>
